<mxfile host="app.diagrams.net" modified="2020-11-18T09:16:45.554Z" agent="5.0 (X11; Linux x86_64) AppleWebKit/537.36 (KHTML, like Gecko) Chrome/86.0.4240.75 Safari/537.36" etag="XdSnLpCApEGifYvVP18e" version="13.9.9" type="github">
  <diagram id="LvzQWpgkNb4uF6J24mG8" name="Page-1">
    <mxGraphModel dx="2453" dy="923" grid="1" gridSize="10" guides="1" tooltips="1" connect="1" arrows="1" fold="1" page="1" pageScale="1" pageWidth="850" pageHeight="1100" math="0" shadow="0">
      <root>
        <mxCell id="0" />
        <mxCell id="1" parent="0" />
        <mxCell id="22SVA37PeKxjYflp5q6W-4" value="" style="endArrow=none;dashed=1;html=1;" edge="1" parent="1">
          <mxGeometry width="50" height="50" relative="1" as="geometry">
            <mxPoint x="440" y="900" as="sourcePoint" />
            <mxPoint x="440" y="120" as="targetPoint" />
          </mxGeometry>
        </mxCell>
        <mxCell id="22SVA37PeKxjYflp5q6W-5" value="UI&lt;br&gt;" style="text;html=1;strokeColor=none;fillColor=none;align=center;verticalAlign=middle;whiteSpace=wrap;rounded=0;fontSize=20;" vertex="1" parent="1">
          <mxGeometry x="280" y="90" width="40" height="20" as="geometry" />
        </mxCell>
        <mxCell id="22SVA37PeKxjYflp5q6W-6" value="Core&lt;br&gt;" style="text;html=1;strokeColor=none;fillColor=none;align=center;verticalAlign=middle;whiteSpace=wrap;rounded=0;fontSize=20;" vertex="1" parent="1">
          <mxGeometry x="910" y="90" width="40" height="20" as="geometry" />
        </mxCell>
        <mxCell id="22SVA37PeKxjYflp5q6W-8" value="FB SDK" style="text;html=1;strokeColor=none;fillColor=none;align=center;verticalAlign=middle;whiteSpace=wrap;rounded=0;fontSize=20;" vertex="1" parent="1">
          <mxGeometry x="40" y="80" width="90" height="40" as="geometry" />
        </mxCell>
        <mxCell id="22SVA37PeKxjYflp5q6W-9" value="" style="endArrow=none;dashed=1;html=1;" edge="1" parent="1">
          <mxGeometry width="50" height="50" relative="1" as="geometry">
            <mxPoint x="170" y="900" as="sourcePoint" />
            <mxPoint x="170" y="120" as="targetPoint" />
          </mxGeometry>
        </mxCell>
        <mxCell id="22SVA37PeKxjYflp5q6W-10" value="" style="endArrow=none;dashed=1;html=1;dashPattern=1 3;strokeWidth=2;fontSize=20;" edge="1" parent="1">
          <mxGeometry width="50" height="50" relative="1" as="geometry">
            <mxPoint x="-200" y="120" as="sourcePoint" />
            <mxPoint x="1240" y="120" as="targetPoint" />
          </mxGeometry>
        </mxCell>
        <mxCell id="22SVA37PeKxjYflp5q6W-31" style="edgeStyle=orthogonalEdgeStyle;rounded=0;orthogonalLoop=1;jettySize=auto;html=1;exitX=1;exitY=0.5;exitDx=0;exitDy=0;fontSize=14;strokeWidth=3;" edge="1" parent="1" source="22SVA37PeKxjYflp5q6W-11" target="22SVA37PeKxjYflp5q6W-20">
          <mxGeometry relative="1" as="geometry" />
        </mxCell>
        <mxCell id="22SVA37PeKxjYflp5q6W-11" value="F button(login)&lt;br style=&quot;font-size: 14px;&quot;&gt;" style="rounded=1;whiteSpace=wrap;html=1;fontSize=14;strokeWidth=3;" vertex="1" parent="1">
          <mxGeometry x="250" y="175" width="120" height="19" as="geometry" />
        </mxCell>
        <mxCell id="22SVA37PeKxjYflp5q6W-34" style="edgeStyle=orthogonalEdgeStyle;rounded=0;orthogonalLoop=1;jettySize=auto;html=1;exitX=1;exitY=0.75;exitDx=0;exitDy=0;entryX=1;entryY=0.5;entryDx=0;entryDy=0;fontSize=14;strokeWidth=3;" edge="1" parent="1" source="22SVA37PeKxjYflp5q6W-19" target="22SVA37PeKxjYflp5q6W-24">
          <mxGeometry relative="1" as="geometry" />
        </mxCell>
        <mxCell id="22SVA37PeKxjYflp5q6W-19" value="AuthLoginService.cpp&lt;br style=&quot;font-size: 14px;&quot;&gt;" style="swimlane;fontStyle=0;childLayout=stackLayout;horizontal=1;startSize=26;fillColor=none;horizontalStack=0;resizeParent=1;resizeParentMax=0;resizeLast=0;collapsible=1;marginBottom=0;fontSize=14;html=1;strokeWidth=3;" vertex="1" parent="1">
          <mxGeometry x="760" y="143.5" width="410" height="56" as="geometry" />
        </mxCell>
        <mxCell id="22SVA37PeKxjYflp5q6W-20" value="startLoginSocialNetworks(requestId, SocialNetworkType)&#xa;&#xa;" style="text;strokeColor=none;fillColor=none;align=left;verticalAlign=top;spacingLeft=4;spacingRight=4;overflow=hidden;rotatable=0;points=[[0,0.5],[1,0.5]];portConstraint=eastwest;fontSize=14;strokeWidth=3;" vertex="1" parent="22SVA37PeKxjYflp5q6W-19">
          <mxGeometry y="26" width="410" height="30" as="geometry" />
        </mxCell>
        <mxCell id="22SVA37PeKxjYflp5q6W-23" value="NsAuthLoginService.cpp" style="swimlane;fontStyle=0;childLayout=stackLayout;horizontal=1;startSize=26;fillColor=none;horizontalStack=0;resizeParent=1;resizeParentMax=0;resizeLast=0;collapsible=1;marginBottom=0;fontSize=14;html=1;strokeWidth=3;" vertex="1" parent="1">
          <mxGeometry x="770" y="270" width="370" height="66" as="geometry" />
        </mxCell>
        <mxCell id="22SVA37PeKxjYflp5q6W-24" value="login(requestId, SocialNetworkType)&#xa;&#xa;" style="text;strokeColor=none;fillColor=none;align=left;verticalAlign=top;spacingLeft=4;spacingRight=4;overflow=hidden;rotatable=0;points=[[0,0.5],[1,0.5]];portConstraint=eastwest;fontSize=14;strokeWidth=3;" vertex="1" parent="22SVA37PeKxjYflp5q6W-23">
          <mxGeometry y="26" width="370" height="40" as="geometry" />
        </mxCell>
        <mxCell id="22SVA37PeKxjYflp5q6W-28" value="NsAuthLoginService.cpp" style="swimlane;fontStyle=0;childLayout=stackLayout;horizontal=1;startSize=26;fillColor=none;horizontalStack=0;resizeParent=1;resizeParentMax=0;resizeLast=0;collapsible=1;marginBottom=0;fontSize=14;html=1;strokeWidth=3;" vertex="1" parent="1">
          <mxGeometry x="770" y="380" width="370" height="66" as="geometry">
            <mxRectangle x="770" y="380" width="190" height="26" as="alternateBounds" />
          </mxGeometry>
        </mxCell>
        <mxCell id="22SVA37PeKxjYflp5q6W-29" value="logout(requestId)&#xa;&#xa;" style="text;strokeColor=none;fillColor=none;align=left;verticalAlign=top;spacingLeft=4;spacingRight=4;overflow=hidden;rotatable=0;points=[[0,0.5],[1,0.5]];portConstraint=eastwest;fontSize=14;strokeWidth=3;" vertex="1" parent="22SVA37PeKxjYflp5q6W-28">
          <mxGeometry y="26" width="370" height="40" as="geometry" />
        </mxCell>
        <mxCell id="22SVA37PeKxjYflp5q6W-37" value="*auth.java&lt;br&gt;" style="swimlane;fontStyle=0;childLayout=stackLayout;horizontal=1;startSize=26;fillColor=none;horizontalStack=0;resizeParent=1;resizeParentMax=0;resizeLast=0;collapsible=1;marginBottom=0;fontSize=14;html=1;strokeWidth=3;" vertex="1" parent="1">
          <mxGeometry x="205" y="380" width="210" height="66" as="geometry" />
        </mxCell>
        <mxCell id="22SVA37PeKxjYflp5q6W-38" value="restoreCredentials(bool quiet)" style="text;strokeColor=none;fillColor=none;align=left;verticalAlign=top;spacingLeft=4;spacingRight=4;overflow=hidden;rotatable=0;points=[[0,0.5],[1,0.5]];portConstraint=eastwest;fontSize=14;strokeWidth=3;" vertex="1" parent="22SVA37PeKxjYflp5q6W-37">
          <mxGeometry y="26" width="210" height="40" as="geometry" />
        </mxCell>
        <mxCell id="22SVA37PeKxjYflp5q6W-43" style="edgeStyle=orthogonalEdgeStyle;rounded=0;orthogonalLoop=1;jettySize=auto;html=1;entryX=1;entryY=0.5;entryDx=0;entryDy=0;fontSize=14;strokeWidth=3;" edge="1" parent="1" source="22SVA37PeKxjYflp5q6W-29" target="22SVA37PeKxjYflp5q6W-38">
          <mxGeometry relative="1" as="geometry" />
        </mxCell>
        <mxCell id="22SVA37PeKxjYflp5q6W-44" style="edgeStyle=orthogonalEdgeStyle;rounded=0;orthogonalLoop=1;jettySize=auto;html=1;entryX=1;entryY=0.5;entryDx=0;entryDy=0;fontSize=14;strokeWidth=3;" edge="1" parent="1" source="22SVA37PeKxjYflp5q6W-24" target="22SVA37PeKxjYflp5q6W-29">
          <mxGeometry relative="1" as="geometry" />
        </mxCell>
        <mxCell id="22SVA37PeKxjYflp5q6W-52" value="if (!activeToken)" style="edgeStyle=orthogonalEdgeStyle;rounded=0;orthogonalLoop=1;jettySize=auto;html=1;entryX=0;entryY=0.5;entryDx=0;entryDy=0;fontSize=14;strokeWidth=3;" edge="1" parent="1" source="22SVA37PeKxjYflp5q6W-48" target="22SVA37PeKxjYflp5q6W-50">
          <mxGeometry x="-0.0211" y="10" relative="1" as="geometry">
            <Array as="points">
              <mxPoint x="25" y="510" />
            </Array>
            <mxPoint as="offset" />
          </mxGeometry>
        </mxCell>
        <mxCell id="22SVA37PeKxjYflp5q6W-48" value="loginManager.login(activity, permissions)" style="html=1;fontSize=14;strokeWidth=3;" vertex="1" parent="1">
          <mxGeometry x="-110" y="416" width="270" height="20" as="geometry" />
        </mxCell>
        <mxCell id="22SVA37PeKxjYflp5q6W-49" style="edgeStyle=orthogonalEdgeStyle;rounded=0;orthogonalLoop=1;jettySize=auto;html=1;entryX=1;entryY=0.5;entryDx=0;entryDy=0;fontSize=14;strokeWidth=3;" edge="1" parent="1" source="22SVA37PeKxjYflp5q6W-38" target="22SVA37PeKxjYflp5q6W-48">
          <mxGeometry relative="1" as="geometry" />
        </mxCell>
        <mxCell id="22SVA37PeKxjYflp5q6W-58" style="edgeStyle=orthogonalEdgeStyle;rounded=0;orthogonalLoop=1;jettySize=auto;html=1;entryX=1;entryY=0.5;entryDx=0;entryDy=0;fontSize=14;exitX=1;exitY=0.5;exitDx=0;exitDy=0;strokeWidth=3;" edge="1" parent="1" source="22SVA37PeKxjYflp5q6W-50" target="22SVA37PeKxjYflp5q6W-56">
          <mxGeometry relative="1" as="geometry" />
        </mxCell>
        <mxCell id="22SVA37PeKxjYflp5q6W-50" value="FacebookDialog" style="html=1;fontSize=14;strokeWidth=3;" vertex="1" parent="1">
          <mxGeometry x="235" y="470" width="150" height="80" as="geometry" />
        </mxCell>
        <mxCell id="22SVA37PeKxjYflp5q6W-53" value="if (activeToken)&lt;br&gt;" style="edgeStyle=orthogonalEdgeStyle;rounded=0;orthogonalLoop=1;jettySize=auto;html=1;fontSize=14;exitX=0.5;exitY=1;exitDx=0;exitDy=0;entryX=-0.002;entryY=0.595;entryDx=0;entryDy=0;entryPerimeter=0;strokeWidth=3;" edge="1" parent="1" source="22SVA37PeKxjYflp5q6W-48" target="22SVA37PeKxjYflp5q6W-54">
          <mxGeometry x="0.5023" y="14" relative="1" as="geometry">
            <mxPoint x="24" y="570" as="sourcePoint" />
            <mxPoint x="234" y="644" as="targetPoint" />
            <Array as="points">
              <mxPoint x="25" y="644" />
              <mxPoint x="24" y="644" />
              <mxPoint x="24" y="848" />
              <mxPoint x="235" y="848" />
            </Array>
            <mxPoint as="offset" />
          </mxGeometry>
        </mxCell>
        <mxCell id="22SVA37PeKxjYflp5q6W-54" value="UseAccessData" style="html=1;fontSize=14;strokeWidth=3;" vertex="1" parent="1">
          <mxGeometry x="235" y="800" width="150" height="80" as="geometry" />
        </mxCell>
        <mxCell id="22SVA37PeKxjYflp5q6W-55" value="PlatformSocialNetworksImpl.java" style="swimlane;fontStyle=0;childLayout=stackLayout;horizontal=1;startSize=26;fillColor=none;horizontalStack=0;resizeParent=1;resizeParentMax=0;resizeLast=0;collapsible=1;marginBottom=0;fontSize=14;html=1;strokeWidth=3;" vertex="1" parent="1">
          <mxGeometry x="205" y="580" width="210" height="66" as="geometry">
            <mxRectangle x="205" y="580" width="240" height="26" as="alternateBounds" />
          </mxGeometry>
        </mxCell>
        <mxCell id="22SVA37PeKxjYflp5q6W-56" value="onActivityResult(requestCode, &#xa;resultCode, data)" style="text;strokeColor=none;fillColor=none;align=left;verticalAlign=top;spacingLeft=4;spacingRight=4;overflow=hidden;rotatable=0;points=[[0,0.5],[1,0.5]];portConstraint=eastwest;fontSize=14;strokeWidth=3;" vertex="1" parent="22SVA37PeKxjYflp5q6W-55">
          <mxGeometry y="26" width="210" height="40" as="geometry" />
        </mxCell>
        <mxCell id="22SVA37PeKxjYflp5q6W-59" value="*auth.java&lt;br&gt;" style="swimlane;fontStyle=0;childLayout=stackLayout;horizontal=1;startSize=26;fillColor=none;horizontalStack=0;resizeParent=1;resizeParentMax=0;resizeLast=0;collapsible=1;marginBottom=0;fontSize=14;html=1;strokeWidth=3;" vertex="1" parent="1">
          <mxGeometry x="205" y="670" width="210" height="66" as="geometry" />
        </mxCell>
        <mxCell id="22SVA37PeKxjYflp5q6W-60" value="onActivityResult(requestCode, &#xa;resultCode, data)" style="text;strokeColor=none;fillColor=none;align=left;verticalAlign=top;spacingLeft=4;spacingRight=4;overflow=hidden;rotatable=0;points=[[0,0.5],[1,0.5]];portConstraint=eastwest;fontSize=14;strokeWidth=3;" vertex="1" parent="22SVA37PeKxjYflp5q6W-59">
          <mxGeometry y="26" width="210" height="40" as="geometry" />
        </mxCell>
        <mxCell id="22SVA37PeKxjYflp5q6W-61" style="edgeStyle=orthogonalEdgeStyle;rounded=0;orthogonalLoop=1;jettySize=auto;html=1;entryX=0;entryY=0.5;entryDx=0;entryDy=0;fontSize=14;strokeWidth=3;" edge="1" parent="1" source="22SVA37PeKxjYflp5q6W-56" target="22SVA37PeKxjYflp5q6W-60">
          <mxGeometry relative="1" as="geometry" />
        </mxCell>
        <mxCell id="22SVA37PeKxjYflp5q6W-62" value="" style="endArrow=none;dashed=1;html=1;" edge="1" parent="1">
          <mxGeometry width="50" height="50" relative="1" as="geometry">
            <mxPoint x="720" y="900" as="sourcePoint" />
            <mxPoint x="720" y="120" as="targetPoint" />
          </mxGeometry>
        </mxCell>
        <mxCell id="22SVA37PeKxjYflp5q6W-63" value="Platform" style="text;html=1;strokeColor=none;fillColor=none;align=center;verticalAlign=middle;whiteSpace=wrap;rounded=0;fontSize=20;" vertex="1" parent="1">
          <mxGeometry x="550" y="90" width="40" height="20" as="geometry" />
        </mxCell>
        <mxCell id="22SVA37PeKxjYflp5q6W-66" style="edgeStyle=orthogonalEdgeStyle;rounded=0;orthogonalLoop=1;jettySize=auto;html=1;strokeWidth=3;fontSize=14;startArrow=classic;startFill=1;endArrow=none;endFill=0;" edge="1" parent="1" source="22SVA37PeKxjYflp5q6W-65">
          <mxGeometry relative="1" as="geometry">
            <mxPoint x="160" y="850" as="targetPoint" />
          </mxGeometry>
        </mxCell>
        <mxCell id="22SVA37PeKxjYflp5q6W-65" value="onError&lt;br&gt;" style="html=1;strokeWidth=3;fontSize=14;" vertex="1" parent="1">
          <mxGeometry x="130" y="780" width="60" height="20" as="geometry" />
        </mxCell>
      </root>
    </mxGraphModel>
  </diagram>
</mxfile>
